<svg width="20" height="20" viewBox="0 0 20 20" fill="none" xmlns="http://www.w3.org/2000/svg">
<path d="M12.1083 2.89L10.4417 1.22333C10.4333 1.215 10.425 1.215 10.425 1.20667C10.3708 1.15568 10.3089 1.1135 10.2417 1.08167C10.2333 1.08167 10.2333 1.08167 10.225 1.07333C10.1583 1.04833 10.0917 1.04 10.025 1.03167H9.95833C9.90833 1.03167 9.85833 1.04833 9.80833 1.065C9.78333 1.07333 9.76667 1.08167 9.75 1.09C9.68333 1.12333 9.61667 1.15667 9.56667 1.215L7.9 2.88167C7.65833 3.12333 7.65833 3.52333 7.9 3.765C8.14167 4.00667 8.54167 4.00667 8.78333 3.765L9.38333 3.165V7.49833C9.38333 7.84 9.66667 8.12333 10.0083 8.12333C10.35 8.12333 10.625 7.84 10.625 7.49833V3.17333L11.225 3.77333C11.35 3.89833 11.5083 3.95667 11.6667 3.95667C11.825 3.95667 11.9833 3.89833 12.1083 3.77333C12.35 3.53167 12.35 3.13167 12.1083 2.89Z" fill="#CE2342"/>
<path opacity="0.4" d="M13.4916 5H6.50829C3.47496 5 1.66663 6.80833 1.66663 9.84167V13.4833C1.66663 16.525 3.47496 18.3333 6.50829 18.3333H13.4833C16.5166 18.3333 18.325 16.525 18.325 13.4917V9.85C18.3333 6.80833 16.525 5 13.4916 5Z" fill="#CE2342"/>
<path d="M17.75 10.1917H14.85C14.0333 10.1917 13.3083 10.6417 12.9416 11.375L12.2416 12.7583C12.075 13.0917 11.7416 13.3 11.375 13.3H8.64163C8.38329 13.3 8.01663 13.2417 7.77496 12.7583L7.07496 11.3833C6.89779 11.0286 6.62552 10.7301 6.28854 10.5211C5.95156 10.3122 5.56313 10.201 5.16663 10.2H2.24996C1.92496 10.2 1.66663 10.4583 1.66663 10.7833V13.5C1.66663 16.525 3.48329 18.3333 6.51663 18.3333H13.5C16.3583 18.3333 18.1166 16.7667 18.3333 13.9833V10.775C18.3333 10.4583 18.075 10.1917 17.75 10.1917Z" fill="#CE2342"/>
</svg>
