<svg width="20" height="20" viewBox="0 0 20 20" fill="none" xmlns="http://www.w3.org/2000/svg">
<path opacity="0.4" d="M13.4916 3.33334H6.50829C3.47496 3.33334 1.66663 5.14167 1.66663 8.175V13.4833C1.66663 16.525 3.47496 18.3333 6.50829 18.3333H13.4833C16.5166 18.3333 18.325 16.525 18.325 13.4917V8.175C18.3333 5.14167 16.525 3.33334 13.4916 3.33334Z" fill="#00DEA3"/>
<path d="M17.75 10.1917H14.85C14.0333 10.1917 13.3083 10.6417 12.9416 11.375L12.2416 12.7583C12.075 13.0917 11.7416 13.3 11.375 13.3H8.64163C8.38329 13.3 8.01663 13.2417 7.77496 12.7583L7.07496 11.3833C6.89779 11.0286 6.62552 10.7301 6.28854 10.5211C5.95156 10.3122 5.56313 10.201 5.16663 10.2H2.24996C1.92496 10.2 1.66663 10.4583 1.66663 10.7833V13.5C1.66663 16.525 3.48329 18.3333 6.51663 18.3333H13.5C16.3583 18.3333 18.1166 16.7667 18.3333 13.9833V10.775C18.3333 10.4583 18.075 10.1917 17.75 10.1917ZM12.1091 5.39166C11.9915 5.27543 11.8328 5.21025 11.6675 5.21025C11.5021 5.21025 11.3434 5.27543 11.2258 5.39166L10.6258 5.99166V1.66666C10.6258 1.325 10.3425 1.04166 10.0008 1.04166C9.65913 1.04166 9.37579 1.325 9.37579 1.66666V5.99166L8.77579 5.39166C8.65818 5.27543 8.49949 5.21025 8.33413 5.21025C8.16877 5.21025 8.01007 5.27543 7.89246 5.39166C7.65079 5.63333 7.65079 6.03333 7.89246 6.275L9.55913 7.94166C9.56746 7.95 9.57579 7.95 9.57579 7.95833C9.62579 8.00833 9.69246 8.05 9.75913 8.08333C9.84246 8.10833 9.91746 8.125 10.0008 8.125C10.0841 8.125 10.1591 8.10833 10.2341 8.075C10.3091 8.04166 10.3758 8 10.4425 7.94166L12.1091 6.275C12.3508 6.03333 12.3508 5.63333 12.1091 5.39166Z" fill="#00DEA3"/>
</svg>
