<svg width="24" height="24" viewBox="0 0 24 24" fill="none" xmlns="http://www.w3.org/2000/svg">
<path opacity="0.4" d="M21.25 9.15C18.94 5.52 15.56 3.43 12 3.43C10.22 3.43 8.49 3.95 6.91 4.92C5.33 5.9 3.91 7.33 2.75 9.15C1.75 10.72 1.75 13.27 2.75 14.84C5.06 18.48 8.44 20.56 12 20.56C13.78 20.56 15.51 20.04 17.09 19.07C18.67 18.09 20.09 16.66 21.25 14.84C22.25 13.28 22.25 10.72 21.25 9.15ZM12 16.04C9.76 16.04 7.96 14.23 7.96 12C7.96 9.77 9.76 7.96 12 7.96C14.24 7.96 16.04 9.77 16.04 12C16.04 14.23 14.24 16.04 12 16.04Z" fill="#0F0C00"/>
<path d="M11.998 9.14C11.2408 9.14 10.5146 9.44079 9.97922 9.97621C9.4438 10.5116 9.14301 11.2378 9.14301 11.995C9.14301 12.7522 9.4438 13.4784 9.97922 14.0138C10.5146 14.5492 11.2408 14.85 11.998 14.85C13.568 14.85 14.858 13.57 14.858 12C14.858 10.43 13.568 9.14 11.998 9.14Z" fill="#0F0C00"/>
</svg>
