<svg width="24" height="24" viewBox="0 0 24 24" fill="none" xmlns="http://www.w3.org/2000/svg">
<path opacity="0.4" d="M21.252 9.15001C20.7743 8.39833 20.2287 7.69204 19.622 7.04001L15.852 10.81C15.972 11.18 16.042 11.58 16.042 12C16.042 14.24 14.232 16.04 12.002 16.04C11.582 16.04 11.182 15.97 10.812 15.85L7.35199 19.31C8.81199 20.13 10.392 20.56 12.002 20.56C13.782 20.56 15.512 20.04 17.092 19.07C18.672 18.09 20.092 16.66 21.252 14.84C22.252 13.28 22.252 10.72 21.252 9.15001V9.15001Z" fill="#0F0C00"/>
<path d="M14.02 9.98001L9.98001 14.02C9.47001 13.5 9.14001 12.78 9.14001 12C9.14001 10.43 10.42 9.14001 12 9.14001C12.78 9.14001 13.5 9.47001 14.02 9.98001Z" fill="#0F0C00"/>
<path opacity="0.4" d="M18.25 5.74999L14.86 9.13999C14.486 8.76262 14.0403 8.46383 13.5492 8.26119C13.058 8.05855 12.5313 7.95614 12 7.95999C9.76 7.95999 7.96 9.76999 7.96 12C7.96 13.12 8.41 14.13 9.14 14.86L5.76 18.25H5.75C4.64 17.35 3.62 16.2 2.75 14.84C1.75 13.27 1.75 10.72 2.75 9.14999C3.91 7.32999 5.33 5.89999 6.91 4.91999C8.49 3.95999 10.22 3.42999 12 3.42999C14.23 3.42999 16.39 4.24999 18.25 5.74999Z" fill="#0F0C00"/>
<path d="M14.858 11.998C14.858 13.568 13.578 14.858 11.998 14.858C11.938 14.858 11.888 14.858 11.828 14.838L14.838 11.828C14.858 11.888 14.858 11.938 14.858 11.998ZM21.769 2.229C21.469 1.929 20.979 1.929 20.679 2.229L2.229 20.689C1.929 20.989 1.929 21.479 2.229 21.779C2.30019 21.8499 2.38478 21.906 2.47784 21.944C2.57091 21.9819 2.67059 22.001 2.77109 22.0001C2.87159 21.9991 2.97091 21.9782 3.06325 21.9386C3.1556 21.8989 3.23913 21.8413 3.309 21.769L21.769 3.309C22.079 3.009 22.079 2.529 21.769 2.229V2.229Z" fill="#0F0C00"/>
</svg>
